FFmpeg version SVN-r25716, Copyright (c) 2000-2010 the FFmpeg developers  built on Nov 10 2010 12:23:18 with gcc 4.1.2 20080704 (Red Hat 4.1.2-48)  configuration: --enable-libmp3lame --enable-shared --disable-mmx --arch=x86_64  libavutil     50.33. 0 / 50.33. 0  libavcore      0.12. 1 /  0.12. 1  libavcodec    52.94. 4 / 52.94. 4  libavformat   52.84. 0 / 52.84. 0  libavdevice   52. 2. 2 / 52. 2. 2  libavfilter    1.59. 0 /  1.59. 0  libswscale     0.12. 0 /  0.12. 0Input #0, avi, from '/RAID10/data/converted_video_files/47661.avi':  Duration: 00:00:10.35, start: 0.000000, bitrate: 20977 kb/s    Stream #0.0: Video: msvideo1, rgb555le, 1024x1024, 20 tbr, 20 tbn, 20 tbc[buffer @ 0xa115510] w:1024 h:1024 pixfmt:rgb555le[ffsink @ 0xa132de0] auto-inserting filter 'auto-inserted scaler 0' between the filter 'src' and the filter 'out'[scale @ 0xa133100] w:1024 h:1024 fmt:rgb555le -> w:1024 h:1024 fmt:yuv420p flags:0x4Output #0, flv, to '/RAID10/data/converted_video_files/47661.flv':  Metadata:    encoder         : Lavf52.84.0    Stream #0.0: Video: flv, yuv420p, 1024x1024, q=2-31, 600 kb/s, 1k tbn, 24 tbcStream mapping:  Stream #0.0 -> #0.0Press [q] to stop encodingframe=    5 fps=  0 q=4.4 size=     768kB time=0.25 bitrate=25258.5kbits/s    frame=   11 fps=  9 q=10.4 size=    1068kB time=0.54 bitrate=16165.4kbits/s    frame=   18 fps= 10 q=27.3 size=    1208kB time=0.88 bitrate=11313.3kbits/s    frame=   28 fps= 12 q=31.0 size=    1301kB time=1.38 bitrate=7752.7kbits/s    frame=   37 fps= 13 q=31.0 size=    1383kB time=1.83 bitrate=6177.9kbits/s    frame=   43 fps= 12 q=31.0 size=    1421kB time=2.12 bitrate=5477.2kbits/s    frame=   49 fps= 13 q=31.0 size=    1482kB time=2.46 bitrate=4938.2kbits/s    frame=   58 fps= 13 q=31.0 size=    1547kB time=2.88 bitrate=4408.8kbits/s    frame=   68 fps= 14 q=31.0 size=    1642kB time=3.37 bitrate=3986.8kbits/s    frame=   78 fps= 15 q=31.0 size=    1728kB time=3.88 bitrate=3652.9kbits/s    frame=   88 fps= 15 q=31.0 size=    1816kB time=4.38 bitrate=3400.3kbits/s    frame=   98 fps= 15 q=31.0 size=    1905kB time=4.87 bitrate=3202.1kbits/s    frame=  107 fps= 15 q=24.8 size=    1981kB time=5.33 bitrate=3042.5kbits/s    frame=  115 fps= 15 q=31.0 size=    2035kB time=5.75 bitrate=2899.4kbits/s    frame=  124 fps= 15 q=31.0 size=    2130kB time=6.21 bitrate=2809.7kbits/s    frame=  132 fps= 16 q=31.0 size=    2211kB time=6.58 bitrate=2750.7kbits/s    frame=  138 fps= 15 q=31.0 size=    2261kB time=6.88 bitrate=2693.8kbits/s    frame=  147 fps= 15 q=31.0 size=    2349kB time=7.33 bitrate=2623.8kbits/s    frame=  155 fps= 15 q=24.8 size=    2424kB time=7.75 bitrate=2562.5kbits/s    frame=  162 fps= 15 q=31.0 size=    2472kB time=8.08 bitrate=2504.7kbits/s    frame=  171 fps= 15 q=31.0 size=    2565kB time=8.54 bitrate=2459.6kbits/s    frame=  181 fps= 15 q=31.0 size=    2657kB time=9.04 bitrate=2407.4kbits/s    frame=  192 fps= 16 q=31.0 size=    2757kB time=9.58 bitrate=2356.5kbits/s    frame=  202 fps= 16 q=31.0 size=    2822kB time=10.08 bitrate=2292.4kbits/s    frame=  207 fps= 16 q=31.0 Lsize=    2878kB time=10.33 bitrate=2281.8kbits/s    video:2875kB audio:0kB global headers:0kB muxing overhead 0.119633%